<svg xmlns="http://www.w3.org/2000/svg" viewBox="0 0 100 100">
  <defs>
    <linearGradient id="gradient" x1="0%" y1="0%" x2="100%" y2="100%">
      <stop offset="0%" style="stop-color:#3b82f6;stop-opacity:1" />
      <stop offset="100%" style="stop-color:#1e40af;stop-opacity:1" />
    </linearGradient>
  </defs>

  <!-- Fundo arredondado -->
  <rect width="100" height="100" rx="20" fill="url(#gradient)"/>

  <!-- Letra L estilizada -->
  <path d="M 25 25 L 25 75 L 60 75 L 60 65 L 35 65 L 35 25 Z" fill="white"/>

  <!-- Letra S -->
  <path d="M 65 35 C 65 30 68 25 75 25 C 82 25 85 30 85 35 L 75 35 C 75 32 74 30 73 30 C 72 30 71 32 71 35 C 71 38 72 40 75 42 C 80 45 85 48 85 55 C 85 62 82 67 75 67 C 68 67 65 62 65 55 L 75 55 C 75 60 76 62 77 62 C 78 62 79 60 79 55 C 79 52 78 50 75 48 C 70 45 65 42 65 35 Z" fill="white" opacity="0.9"/>
</svg>
